<svg width="178" height="18" viewBox="0 0 178 18" fill="none" xmlns="http://www.w3.org/2000/svg">
<path d="M6 4V6H8V14H10V6H12V4H6ZM2 0H16C16.5304 0 17.0391 0.210714 17.4142 0.585786C17.7893 0.960859 18 1.46957 18 2V16C18 16.5304 17.7893 17.0391 17.4142 17.4142C17.0391 17.7893 16.5304 18 16 18H2C1.46957 18 0.960859 17.7893 0.585786 17.4142C0.210714 17.0391 0 16.5304 0 16V2C0 1.46957 0.210714 0.960859 0.585786 0.585786C0.960859 0.210714 1.46957 0 2 0Z" fill="white"/>
<path d="M66 4V6H68V14H70V6H72V4H66ZM62 0H76C76.5304 0 77.0391 0.210714 77.4142 0.585786C77.7893 0.960859 78 1.46957 78 2V16C78 16.5304 77.7893 17.0391 77.4142 17.4142C77.0391 17.7893 76.5304 18 76 18H62C61.4696 18 60.9609 17.7893 60.5858 17.4142C60.2107 17.0391 60 16.5304 60 16V2C60 1.46957 60.2107 0.960859 60.5858 0.585786C60.9609 0.210714 61.4696 0 62 0Z" fill="white"/>
<path d="M126 4V6H128V14H130V6H132V4H126ZM122 0H136C136.53 0 137.039 0.210714 137.414 0.585786C137.789 0.960859 138 1.46957 138 2V16C138 16.5304 137.789 17.0391 137.414 17.4142C137.039 17.7893 136.53 18 136 18H122C121.47 18 120.961 17.7893 120.586 17.4142C120.211 17.0391 120 16.5304 120 16V2C120 1.46957 120.211 0.960859 120.586 0.585786C120.961 0.210714 121.47 0 122 0Z" fill="white"/>
<path d="M31 4V6H30V12H31V14H27V12H28V6H27V4H31ZM22 0H36C36.5304 0 37.0391 0.210714 37.4142 0.585786C37.7893 0.960859 38 1.46957 38 2V16C38 16.5304 37.7893 17.0391 37.4142 17.4142C37.0391 17.7893 36.5304 18 36 18H22C21.4696 18 20.9609 17.7893 20.5858 17.4142C20.2107 17.0391 20 16.5304 20 16V2C20 1.46957 20.2107 0.960859 20.5858 0.585786C20.9609 0.210714 21.4696 0 22 0ZM22 2V16H36V2H22Z" fill="white"/>
<path d="M46 4H48V7.33L50 4H52L49 9L52 14H50L48 10.67V14H46V4ZM42 0H56C56.5304 0 57.0391 0.210714 57.4142 0.585786C57.7893 0.960859 58 1.46957 58 2V16C58 16.5304 57.7893 17.0391 57.4142 17.4142C57.0391 17.7893 56.5304 18 56 18H42C41.4696 18 40.9609 17.7893 40.5858 17.4142C40.2107 17.0391 40 16.5304 40 16V2C40 1.46957 40.2107 0.960859 40.5858 0.585786C40.9609 0.210714 41.4696 0 42 0ZM42 2V16H56V2H42Z" fill="white"/>
<path d="M106 4H108V7.33L110 4H112L109 9L112 14H110L108 10.67V14H106V4ZM102 0H116C116.53 0 117.039 0.210714 117.414 0.585786C117.789 0.960859 118 1.46957 118 2V16C118 16.5304 117.789 17.0391 117.414 17.4142C117.039 17.7893 116.53 18 116 18H102C101.47 18 100.961 17.7893 100.586 17.4142C100.211 17.0391 100 16.5304 100 16V2C100 1.46957 100.211 0.960859 100.586 0.585786C100.961 0.210714 101.47 0 102 0ZM102 2V16H116V2H102Z" fill="white"/>
<path d="M80 2C80 1.46957 80.2107 0.960859 80.5858 0.585786C80.9609 0.210714 81.4696 0 82 0H96C96.5304 0 97.0391 0.210714 97.4142 0.585786C97.7893 0.960859 98 1.46957 98 2V16C98 16.5304 97.7893 17.0391 97.4142 17.4142C97.0391 17.7893 96.5304 18 96 18H82C80.89 18 80 17.1 80 16V2ZM82 2V16H96V2H82ZM88 4H90C90.5304 4 91.0391 4.21071 91.4142 4.58579C91.7893 4.96086 92 5.46957 92 6V14H90V10H88V14H86V6C86 5.46957 86.2107 4.96086 86.5858 4.58579C86.9609 4.21071 87.4696 4 88 4ZM88 6V8H90V6H88Z" fill="white"/>
<path d="M166 4H172V6H168V8H172V10H168V12H172V14H166V4ZM160 2C160 1.46957 160.211 0.960859 160.586 0.585786C160.961 0.210714 161.47 0 162 0H176C176.53 0 177.039 0.210714 177.414 0.585786C177.789 0.960859 178 1.46957 178 2V16C178 16.5304 177.789 17.0391 177.414 17.4142C177.039 17.7893 176.53 18 176 18H162C160.89 18 160 17.1 160 16V2ZM162 2V16H176V2H162Z" fill="white"/>
<path d="M142 0H156C156.53 0 157.039 0.210714 157.414 0.585786C157.789 0.960859 158 1.46957 158 2V16C158 16.5304 157.789 17.0391 157.414 17.4142C157.039 17.7893 156.53 18 156 18H142C141.47 18 140.961 17.7893 140.586 17.4142C140.211 17.0391 140 16.5304 140 16V2C140 1.46957 140.211 0.960859 140.586 0.585786C140.961 0.210714 141.47 0 142 0ZM142 2V16H156V2H142ZM148 4H150C150.53 4 151.039 4.21071 151.414 4.58579C151.789 4.96086 152 5.46957 152 6V12C152 12.5304 151.789 13.0391 151.414 13.4142C151.039 13.7893 150.53 14 150 14H148C147.47 14 146.961 13.7893 146.586 13.4142C146.211 13.0391 146 12.5304 146 12V6C146 5.46957 146.211 4.96086 146.586 4.58579C146.961 4.21071 147.47 4 148 4ZM148 6V12H150V6H148Z" fill="white"/>
</svg>
